HIERARCHY
ROOT Hips
{
  OFFSET 18.6338 99.6127 58.1274
  CHANNELS 6 Xposition Yposition Zposition Zrotation Xrotation Yrotation
  JOINT ToSpine
  {
    OFFSET -2.69724 7.43032 -0.144315
    CHANNELS 3 Zrotation Xrotation Yrotation
    JOINT Spine
    {
      OFFSET -0.0310711 10.7595 1.96963
      CHANNELS 3 Zrotation Xrotation Yrotation
      JOINT Spine1
      {
        OFFSET 13.1342 3.43533 0.764692
        CHANNELS 3 Zrotation Xrotation Yrotation
        JOINT Neck
        {
          OFFSET 29.8703 7.82586 -0.130764
          CHANNELS 3 Zrotation Xrotation Yrotation
          JOINT Head
          {
            OFFSET 9.52751 0.295786 -0.907742
            CHANNELS 3 Zrotation Xrotation Yrotation
            End Site
            {
              OFFSET 16.4037 0.713936 2.7358
            }
          }
        }
        JOINT LeftShoulder
        {
          OFFSET 27.5574 4.95586 2.47156
          CHANNELS 3 Zrotation Xrotation Yrotation
          JOINT LeftArm
          {
            OFFSET 1.20734 -0.998971 20.1238
            CHANNELS 3 Zrotation Xrotation Yrotation
            JOINT LeftForeArm
            {
              OFFSET 26.8049 -0.0536703 -0.155908
              CHANNELS 3 Zrotation Xrotation Yrotation
              JOINT LeftHand
              {
                OFFSET 26.6817 0 0.320147
                CHANNELS 3 Zrotation Xrotation Yrotation
                End Site
                {
                  OFFSET 18.6119 0 0.382219
                }
              }
            }
          }
        }
        JOINT RightShoulder
        {
          OFFSET 27.5927 4.71444 -2.65209
          CHANNELS 3 Zrotation Xrotation Yrotation
          JOINT RightArm
          {
            OFFSET 2.83739 -1.17114 -18.7564
            CHANNELS 3 Zrotation Xrotation Yrotation
            JOINT RightForeArm
            {
              OFFSET 28.839 -0.0548439 1.22491
              CHANNELS 3 Zrotation Xrotation Yrotation
              JOINT RightHand
              {
                OFFSET 26.5114 0 -0.101894
                CHANNELS 3 Zrotation Xrotation Yrotation
                End Site
                {
                  OFFSET 18.2168 0 0
                }
              }
            }
          }
        }
      }
    }
  }
  JOINT LeftUpLeg
  {
    OFFSET -4.76168 -1.9167 -10.2353
    CHANNELS 3 Zrotation Xrotation Yrotation
    JOINT LeftLeg
    {
      OFFSET 2.55951 -42.0585 -8.02213
      CHANNELS 3 Zrotation Xrotation Yrotation
      JOINT LeftFoot
      {
        OFFSET 3.16357 -42.5282 -3.95426
        CHANNELS 3 Zrotation Xrotation Yrotation
        JOINT LeftToeBase
        {
          OFFSET 0.346054 -6.02161 12.8035
          CHANNELS 3 Zrotation Xrotation Yrotation
          End Site
          {
            OFFSET 0.134235 -1.35082 5.13018
          }
        }
      }
    }
  }
  JOINT RightUpLeg
  {
    OFFSET -4.94151 -1.41743 10.6446
    CHANNELS 3 Zrotation Xrotation Yrotation
    JOINT RightLeg
    {
      OFFSET -2.56294 -42.0364 -7.94377
      CHANNELS 3 Zrotation Xrotation Yrotation
      JOINT RightFoot
      {
        OFFSET -3.0952 -42.555 -4.02241
        CHANNELS 3 Zrotation Xrotation Yrotation
        JOINT RightToeBase
        {
          OFFSET -0.0828122 -6.13587 12.8035
          CHANNELS 3 Zrotation Xrotation Yrotation
          End Site
          {
            OFFSET -0.131328 -1.35082 5.13018
          }
        }
      }
    }
  }
}
MOTION
Frames:	8
Frame Time:	0.0333333
12.9554 94.2291 -4.68758 67.1916 -36.5456 -12.9063 -70.1915 0 88.8779 67.1361 70.992 16.0742 6.99835 20.5562 6.32946 -128.513 35.3698 158.117 173.139 77.7021 -143.445 0.344617 -15.6818 -22.6887 -55.3065 36.1629 -142.043 26.6593 -8.71395 -106.002 -0.581063 0.0101721 1.92606 -1.89264 6.04613 45.6154 -122.458 -20.5485 78.7134 14.4168 -2.53029 80.1723 0.968881 0.0303052 2.28162 -53.2062 8.54465 94.7382 -2.38357 39.3572 -5.06103 -1.37285 -15.1371 -1.31314 4.80004 -11.2639 5.82997 -44.8443 -13.4195 79.5225 1.1912 25.927 -0.170312 0.108324 2.15786 -0.036949 1.54824 -4.86376 -8.05992 
12.9528 94.2171 -4.64114 67.1484 -36.6529 -12.9974 -70.1915 0 88.8779 66.4643 70.9808 16.488 7.07425 20.5096 6.68735 -129.091 35.469 158.661 173.906 77.662 -143.942 0.349416 -15.6034 -22.7989 -55.2207 36.372 -141.809 26.6523 -8.86673 -106.28 -0.611822 0.00997944 1.94727 -1.89121 6.06085 45.5218 -122.253 -20.8094 78.7088 14.5372 -2.51362 80.3097 0.969908 0.0303064 2.27774 -53.3503 8.56563 94.9022 -2.35032 39.129 -4.9707 -1.13341 -15.0391 -1.29674 4.85571 -11.3823 5.94021 -44.8112 -13.2732 79.6456 1.10809 25.806 0.0823657 0.136194 2.2936 -0.0516561 1.71467 -5.37171 -9.25689 
12.8903 94.2334 -4.5678 66.9378 -36.6865 -13.1439 -70.1915 0 88.8779 65.5069 70.9536 17.3338 7.11011 20.5749 6.79607 -129.295 35.5128 158.679 173.562 77.6468 -143.39 0.349939 -15.6044 -22.7843 -55.2507 36.3987 -141.601 26.8534 -9.04767 -106.461 -0.588199 0.0101278 1.87364 -1.87725 5.97006 45.7483 -122.002 -20.7193 78.6918 14.3434 -2.46111 80.3743 1.00301 0.0303433 2.3018 -53.2823 8.68671 95.1072 -2.31897 38.9393 -4.86519 -0.947265 -15.0025 -1.29103 4.80371 -11.2502 5.69124 -44.6088 -13.1953 79.667 1.16617 25.8424 0.155409 -0.098448 2.30718 -0.0174714 1.75171 -5.33723 -9.6017 
12.8495 94.2498 -4.52298 66.9161 -36.6804 -13.1771 -70.1915 0 88.8779 65.1488 70.957 17.5755 7.13568 20.6268 6.83776 -129.691 35.5845 159.128 171.479 77.4376 -141.765 0.345845 -15.5719 -22.9542 -55.4914 36.1565 -141.324 27.1459 -9.20085 -106.529 -0.599002 0.0100606 1.82513 -1.87388 5.94136 45.8192 -121.718 -20.8843 78.5752 13.7844 -2.38914 80.273 1.02468 0.0303668 2.34818 -53.3531 8.65289 95.0907 -2.29915 38.7502 -4.82192 -0.839112 -14.9905 -1.28971 4.71336 -11.1097 5.86445 -44.6017 -13.1467 79.6894 1.17169 25.7986 0.21903 -0.219493 2.35665 -0.00295868 1.79986 -5.59149 -9.93551 
12.7809 94.2752 -4.50422 66.8231 -36.7994 -13.4145 -70.1915 0 88.8779 64.8791 71.0379 17.6104 6.95278 20.7321 6.8202 -129.582 35.5248 158.946 172.011 77.49 -142.706 0.37185 -15.39 -22.9134 -55.1703 36.0201 -141.53 26.8171 -9.02792 -106.45 -0.563017 0.0102861 1.78226 -1.89944 5.94953 46.1718 -121.348 -20.7146 78.6741 13.6328 -2.45549 79.9182 1.04449 0.0303887 2.37205 -53.4988 8.5545 95.3034 -2.25762 38.4009 -4.67749 -0.724952 -14.8995 -1.28125 4.65318 -10.9962 5.84611 -44.419 -13.1188 79.8432 1.0636 25.841 0.314398 -0.336334 2.42609 0.00953449 1.8037 -5.70025 -9.93715 
12.7345 94.31 -4.52418 66.7031 -36.8647 -13.6347 -70.1915 0 88.8779 64.4578 71.0753 18.0342 6.90526 20.8719 6.62768 -129.269 35.4627 158.831 171.912 77.4802 -142.657 0.350018 -15.4951 -23.0855 -55.1123 35.9098 -141.409 26.6221 -8.92087 -106.394 -0.611689 0.00998135 1.7994 -1.9252 5.97855 46.4228 -121.044 -20.5635 78.674 13.3298 -2.47868 79.6115 1.04386 0.0303877 2.38737 -53.5506 8.39674 95.3555 -2.19322 38.0982 -4.28875 -0.630129 -14.9157 -1.28236 4.50286 -10.6562 5.45219 -44.3068 -13.1863 79.858 1.07465 25.7524 0.499228 -0.400489 2.5035 0.0135656 1.82767 -5.54732 -10.1963 
12.7158 94.3101 -4.59604 66.8395 -36.9665 -13.7386 -70.1915 0 88.8779 64.1415 71.1 18.1676 7.16775 20.9013 6.68076 -129.397 35.5577 159.413 170.87 77.3506 -141.626 0.345675 -15.4475 -23.3088 -55.2526 36.0515 -141.274 26.7351 -8.97126 -106.408 -0.658549 0.0096882 1.77922 -1.9356 6.04331 46.2461 -120.992 -20.9573 78.7097 13.7327 -2.60514 79.4228 1.05393 0.0303973 2.46879 -53.7326 8.10517 95.2984 -2.15931 37.986 -4.05691 -0.514424 -14.7606 -1.26861 4.54913 -10.7757 5.66214 -44.2943 -13.2633 79.964 0.933825 25.81 0.859245 -0.165454 2.47809 -0.0201984 1.90031 -5.61863 -10.8141 
12.7077 94.2945 -4.64542 66.8383 -36.9673 -13.8408 -70.1915 0 88.8779 62.9058 71.0319 19.251 7.64781 20.9767 6.69979 -129.398 35.5469 159.32 172.049 77.4515 -142.715 0.333632 -15.5257 -23.3365 -55.3366 36.1568 -141.286 26.6779 -8.94969 -106.41 -0.57572 0.0102069 1.73746 -1.91511 5.98138 46.2448 -120.966 -20.9587 78.8519 14.0489 -2.69744 79.3078 1.0826 0.0304292 2.48857 -53.7603 7.9909 95.404 -2.14616 37.9252 -3.97072 -0.506401 -14.8428 -1.2757 4.51681 -10.6888 5.49447 -44.1799 -13.3909 79.9765 0.906369 25.9484 0.931124 -0.202572 2.47156 -0.0141023 1.88629 -5.5824 -10.7005 
